<svg xmlns="http://www.w3.org/2000/svg" width="400" height="400" viewBox="0 0 400 400"><defs><linearGradient id="bg" x1="0%" x2="100%" y1="0%" y2="100%"><stop offset="0%" style="stop-color:#0a0a1a"/><stop offset="100%" style="stop-color:#1a1a3a"/></linearGradient><linearGradient id="waveGrad" x1="0%" x2="100%" y1="0%" y2="0%"><stop offset="0%" style="stop-color:#00d4ff"/><stop offset="100%" style="stop-color:#7b2fff"/></linearGradient><linearGradient id="scopeGrad" x1="0%" x2="100%" y1="0%" y2="100%"><stop offset="0%" style="stop-color:#7b2fff"/><stop offset="100%" style="stop-color:#00d4ff"/></linearGradient></defs><circle cx="200" cy="200" r="190" fill="url(#bg)" stroke="url(#scopeGrad)" stroke-width="3"/><g fill="none" stroke="url(#scopeGrad)" stroke-linecap="round" stroke-width="4"><path d="M 80 110 L 80 80 L 110 80"/><path d="M 290 80 L 320 80 L 320 110"/><path d="M 80 290 L 80 320 L 110 320"/><path d="M 290 320 L 320 320 L 320 290"/></g><g fill="none" stroke-linecap="round"><path stroke="url(#waveGrad)" stroke-width="4" d="M 140 200 Q 155 170 175 170 Q 200 170 200 200 Q 200 230 225 230 Q 245 230 260 200" opacity=".9"/><path stroke="url(#waveGrad)" stroke-width="3.5" d="M 115 200 Q 135 155 165 155 Q 200 155 200 200 Q 200 245 235 245 Q 265 245 285 200" opacity=".7"/><path stroke="url(#waveGrad)" stroke-width="3" d="M 90 200 Q 120 140 155 140 Q 200 140 200 200 Q 200 260 245 260 Q 280 260 310 200" opacity=".5"/></g><circle cx="200" cy="200" r="12" fill="url(#scopeGrad)"/><circle cx="200" cy="200" r="6" fill="#fff"/><text x="200" y="360" fill="#fff" font-family="'SF Pro Display', 'Helvetica Neue', Arial, sans-serif" font-size="28" font-weight="700" letter-spacing="4" text-anchor="middle">VOXPLORE</text><text x="200" y="385" fill="#00d4ff" font-family="'SF Pro Display', 'Helvetica Neue', Arial, sans-serif" font-size="12" font-weight="400" letter-spacing="2.5" opacity=".85" text-anchor="middle">AI VIDEO NARRATOR</text></svg>